<svg width="14" height="14" viewBox="0 0 14 14" fill="none" xmlns="http://www.w3.org/2000/svg">
<path d="M7 8.80469C7.26906 8.80469 7.49219 8.58156 7.49219 8.3125V5.03125C7.49219 4.76219 7.26906 4.53906 7 4.53906C6.73094 4.53906 6.50781 4.76219 6.50781 5.03125V8.3125C6.50781 8.58156 6.73094 8.80469 7 8.80469Z" fill="#DCDCDC"/>
<path d="M7 10.9372C7.03938 10.9372 7.08531 10.9306 7.13125 10.9241C7.17062 10.9175 7.21 10.9044 7.24938 10.8847C7.28875 10.8716 7.32813 10.8519 7.3675 10.8256C7.40031 10.7994 7.43313 10.7731 7.46594 10.7469C7.58406 10.6222 7.65625 10.4516 7.65625 10.2809C7.65625 10.1103 7.58406 9.93969 7.46594 9.815C7.43313 9.78875 7.40031 9.7625 7.3675 9.73625C7.32813 9.71 7.28875 9.69031 7.24938 9.67719C7.21 9.6575 7.17062 9.64438 7.13125 9.63781C7.04594 9.61813 6.95406 9.61813 6.87531 9.63781C6.82938 9.64438 6.79 9.6575 6.75062 9.67719C6.71125 9.69031 6.67187 9.71 6.6325 9.73625C6.59969 9.7625 6.56687 9.78875 6.53406 9.815C6.41594 9.93969 6.34375 10.1103 6.34375 10.2809C6.34375 10.4516 6.41594 10.6222 6.53406 10.7469C6.56687 10.7731 6.59969 10.7994 6.6325 10.8256C6.67187 10.8519 6.71125 10.8716 6.75062 10.8847C6.79 10.9044 6.82938 10.9175 6.87531 10.9241C6.91469 10.9306 6.96062 10.9372 7 10.9372Z" fill="#DCDCDC"/>
<path d="M3.05838 14H10.9443C12.2131 14 13.1826 13.5108 13.6771 12.6289C14.1651 11.747 14.1 10.6102 13.4819 9.43209L9.5389 1.92224C8.88824 0.682087 7.99034 0 7.00135 0C6.01235 0 5.11445 0.682087 4.46379 1.92224L0.520823 9.43898C-0.0972986 10.6171 -0.168872 11.747 0.325626 12.6358C0.820124 13.5108 1.7896 14 3.05838 14ZM7.00135 1.03346C7.61296 1.03346 8.21156 1.52953 8.68654 2.4252L12.623 9.94193C13.0654 10.7825 13.137 11.5541 12.8312 12.1122C12.5254 12.6703 11.8487 12.9734 10.9378 12.9734H3.05187C2.14095 12.9734 1.47078 12.6703 1.15846 12.1122C0.84615 11.5541 0.924229 10.7894 1.36667 9.94193L5.31615 2.4252C5.79113 1.52953 6.38973 1.03346 7.00135 1.03346Z" fill="#DCDCDC"/>
</svg>
