<svg width="19" height="23" viewBox="0 0 19 23" fill="none" xmlns="http://www.w3.org/2000/svg">
<path d="M1.67061 8.09676C-0.191491 11.3281 0.992281 16.2318 3.05146 19.2051C4.07933 20.6916 5.11997 22.026 6.5453 22.026C6.57214 22.026 6.59912 22.0254 6.62669 22.0244C7.29634 21.9977 7.78027 21.7915 8.24819 21.5922C8.77355 21.3684 9.3168 21.1369 10.1689 21.1369C10.9796 21.1369 11.4969 21.3609 11.9973 21.5774C12.4904 21.7907 12.9983 22.0114 13.7487 21.9973C15.3543 21.9674 16.3401 20.5275 17.2098 19.2573C18.1172 17.9311 18.5726 16.6434 18.7262 16.1513L18.7324 16.1318C18.7615 16.0443 18.7202 15.9488 18.6365 15.9103C18.6341 15.9093 18.6256 15.9057 18.6232 15.9047C18.3406 15.7891 15.8605 14.6889 15.8344 11.6901C15.8101 9.25386 17.6948 7.9637 18.0728 7.72984L18.0905 7.71887C18.1315 7.6925 18.16 7.65069 18.1696 7.60289C18.1794 7.55514 18.1692 7.50545 18.1418 7.46531C16.8409 5.56152 14.847 5.27462 14.0443 5.24012C13.9278 5.22851 13.8075 5.22266 13.6867 5.22266C12.744 5.22266 11.8407 5.57877 11.115 5.8649C10.6141 6.0624 10.1815 6.23297 9.88307 6.23297C9.54777 6.23297 9.11267 6.06029 8.60882 5.86042C7.93505 5.59301 7.17136 5.28998 6.3629 5.28998C6.34362 5.28998 6.32461 5.2902 6.30594 5.29054C4.42611 5.31816 2.64987 6.39361 1.67061 8.09676Z" fill="white"/>
<path d="M14.046 0.000136848C12.9075 0.046512 11.5421 0.747216 10.7258 1.70324C10.0321 2.50681 9.35454 3.84657 9.53312 5.197C9.5443 5.28149 9.61305 5.34671 9.69806 5.35329C9.7748 5.35927 9.8534 5.36232 9.9314 5.36241C11.0445 5.36241 12.2453 4.74662 13.0652 3.75506C13.9283 2.70805 14.3647 1.36442 14.2327 0.160858C14.2225 0.0665162 14.1394 -0.00351982 14.046 0.000136848Z" fill="white"/>
</svg>
