<svg width="30" height="30" viewBox="0 0 30 30" fill="none" xmlns="http://www.w3.org/2000/svg">
<path d="M17.0116 3.84343C16.692 3.48832 16.1866 3.36691 15.7405 3.53807C15.2945 3.70923 15.0001 4.13756 15.0001 4.61532V16.1538C15.0001 16.7911 15.5167 17.3076 16.1539 17.3076H26.5385C26.9942 17.3076 27.4072 17.0395 27.5925 16.6232C27.7779 16.207 27.701 15.7206 27.3962 15.3819L17.0116 3.84343Z" fill="#72F300"/>
<path d="M5.76933 18.4614C5.3536 18.4614 4.97006 18.685 4.76525 19.0468C4.56044 19.4085 4.56598 19.8525 4.77991 20.2089L8.24144 25.9782C8.44994 26.3257 8.82552 26.5383 9.23087 26.5383H23.077C23.4823 26.5383 23.8579 26.3257 24.0664 25.9782L27.5279 20.2089C27.7418 19.8525 27.7474 19.4085 27.5426 19.0468C27.3378 18.685 26.9542 18.4614 26.5385 18.4614H5.76933Z" fill="#72F300"/>
</svg>
