<svg width="21" height="21" viewBox="0 0 21 21" fill="none" xmlns="http://www.w3.org/2000/svg">
<path d="M14.9375 2.79688V6.07812H11.6562V6.71875H13.2969V9.35938H11.8438L10.2031 11H7.70312V9.67969C7.70312 8.59887 6.82301 7.71875 5.74219 7.71875H0.5V8.35938H3.78125V11H0.5V14.6016C0.5 16.587 2.1161 18.2031 4.10156 18.2031H16.8984C18.8839 18.2031 20.5 16.587 20.5 14.6016V12.6406H18.8594V9.35938H17.2188V6.07812H15.5781V2.79688H14.9375ZM11.8438 13.2812H19.8594V14.6016C19.8594 16.2347 18.5315 17.5625 16.8984 17.5625H4.10156C2.46846 17.5625 1.14062 16.2347 1.14062 14.6016V11.6406H10.2031L11.8438 13.2812ZM18.2188 12.6406H12.1094L10.7891 11.3203L12.1094 10H18.2188V12.6406ZM5.74219 8.35938C6.47065 8.35938 7.0625 8.95123 7.0625 9.67969V11H4.42188V8.35938H5.74219ZM16.5781 9.35938H13.9375V6.71875H16.5781V9.35938Z" fill="black" stroke="#DCDCDC"/>
<path d="M3.78125 14.2812V14.9219H4.42188V14.2812H3.78125Z" fill="black" stroke="#DCDCDC"/>
</svg>
