<svg width="18" height="18" viewBox="0 0 18 18" fill="none" xmlns="http://www.w3.org/2000/svg">
<mask id="path-1-inside-1_2503_19794" fill="white">
<path d="M16.3394 7.00317C16.6364 6.41817 16.6966 5.86073 16.5166 5.34605C16.2472 4.57486 15.5418 4.23398 15.4282 4.18392L11.2432 2.59373C11.2044 2.57855 10.2751 2.20898 8.97631 2.20898C8.21187 2.20898 7.47162 2.33611 6.76681 2.5898L2.53794 4.19742C2.45806 4.23398 1.75269 4.57486 1.48325 5.34605C1.30381 5.86073 1.36344 6.41817 1.66381 7.00936L3.02337 9.6053V11.4385C2.85631 11.7895 2.52894 12.6895 3.03237 13.6272C3.7355 14.9395 5.74475 15.6674 9.02525 15.7917C9.48256 15.7917 13.5303 15.7365 14.8083 13.8252C15.1194 13.36 15.3871 12.5787 14.9765 11.4801V9.60586L16.3394 7.00317ZM13.8734 13.1991C13.0713 14.4 10.1019 14.665 9.04662 14.6667C5.34819 14.526 4.31544 13.6277 4.02912 13.1052C3.83 12.7418 3.88119 12.3739 3.95487 12.1337H14.0062C14.1119 12.5505 14.072 12.9027 13.8734 13.1991ZM4.14837 11.0087V10.0294H13.8515V11.0087H4.14837ZM14.0737 8.90442H3.92619L2.66337 6.49355C2.5115 6.19542 2.471 5.93667 2.54244 5.72405C2.64931 5.40736 2.97894 5.23467 2.97331 5.23467L7.15719 3.64505C7.73037 3.43861 8.34181 3.33398 8.97631 3.33398C10.0456 3.33398 10.8162 3.63436 10.8326 3.64111L14.9894 5.21892C14.9928 5.22061 15.3461 5.39498 15.4569 5.72405C15.5283 5.93667 15.4878 6.19542 15.3393 6.48736L14.0737 8.90442ZM9.56694 5.17673V6.97336C9.98262 6.8423 10.3066 6.57342 10.4056 6.23648C10.4928 5.93948 10.8027 5.7668 11.1037 5.85567C11.4012 5.94286 11.5722 6.25561 11.4845 6.55373C11.2021 7.51505 10.1823 8.18611 9.00444 8.18611C7.80294 8.18611 6.77806 7.49873 6.512 6.51492C6.431 6.21511 6.60819 5.9063 6.90856 5.82473C7.20612 5.74373 7.51719 5.92092 7.59819 6.2213C7.68987 6.55936 8.02006 6.83555 8.44194 6.97055V5.17673C7.89237 5.18573 7.85581 4.61423 7.85581 4.61423C7.85581 4.30317 8.10781 4.05173 8.41831 4.05173H9.59C9.90106 4.05173 10.1525 4.30317 10.1525 4.61423C10.1525 4.61423 10.1514 5.14186 9.56694 5.17673Z"/>
</mask>
<path d="M16.3394 7.00317C16.6364 6.41817 16.6966 5.86073 16.5166 5.34605C16.2472 4.57486 15.5418 4.23398 15.4282 4.18392L11.2432 2.59373C11.2044 2.57855 10.2751 2.20898 8.97631 2.20898C8.21187 2.20898 7.47162 2.33611 6.76681 2.5898L2.53794 4.19742C2.45806 4.23398 1.75269 4.57486 1.48325 5.34605C1.30381 5.86073 1.36344 6.41817 1.66381 7.00936L3.02337 9.6053V11.4385C2.85631 11.7895 2.52894 12.6895 3.03237 13.6272C3.7355 14.9395 5.74475 15.6674 9.02525 15.7917C9.48256 15.7917 13.5303 15.7365 14.8083 13.8252C15.1194 13.36 15.3871 12.5787 14.9765 11.4801V9.60586L16.3394 7.00317ZM13.8734 13.1991C13.0713 14.4 10.1019 14.665 9.04662 14.6667C5.34819 14.526 4.31544 13.6277 4.02912 13.1052C3.83 12.7418 3.88119 12.3739 3.95487 12.1337H14.0062C14.1119 12.5505 14.072 12.9027 13.8734 13.1991ZM4.14837 11.0087V10.0294H13.8515V11.0087H4.14837ZM14.0737 8.90442H3.92619L2.66337 6.49355C2.5115 6.19542 2.471 5.93667 2.54244 5.72405C2.64931 5.40736 2.97894 5.23467 2.97331 5.23467L7.15719 3.64505C7.73037 3.43861 8.34181 3.33398 8.97631 3.33398C10.0456 3.33398 10.8162 3.63436 10.8326 3.64111L14.9894 5.21892C14.9928 5.22061 15.3461 5.39498 15.4569 5.72405C15.5283 5.93667 15.4878 6.19542 15.3393 6.48736L14.0737 8.90442ZM9.56694 5.17673V6.97336C9.98262 6.8423 10.3066 6.57342 10.4056 6.23648C10.4928 5.93948 10.8027 5.7668 11.1037 5.85567C11.4012 5.94286 11.5722 6.25561 11.4845 6.55373C11.2021 7.51505 10.1823 8.18611 9.00444 8.18611C7.80294 8.18611 6.77806 7.49873 6.512 6.51492C6.431 6.21511 6.60819 5.9063 6.90856 5.82473C7.20612 5.74373 7.51719 5.92092 7.59819 6.2213C7.68987 6.55936 8.02006 6.83555 8.44194 6.97055V5.17673C7.89237 5.18573 7.85581 4.61423 7.85581 4.61423C7.85581 4.30317 8.10781 4.05173 8.41831 4.05173H9.59C9.90106 4.05173 10.1525 4.30317 10.1525 4.61423C10.1525 4.61423 10.1514 5.14186 9.56694 5.17673Z" fill="#DCDCDC" fill-opacity="0.6"/>
<path d="M16.3394 7.00317L30.5136 14.4257L30.5604 14.3363L30.6061 14.2463L16.3394 7.00317ZM16.5166 5.34605L1.41197 10.6233L1.4136 10.628L16.5166 5.34605ZM15.4282 4.18392L21.8793 -10.4579L21.4994 -10.6253L21.1113 -10.7727L15.4282 4.18392ZM11.2432 2.59373L5.4128 17.4936L5.48629 17.5224L5.56005 17.5504L11.2432 2.59373ZM6.76681 2.5898L1.34815 -12.4647L1.21429 -12.4165L1.08131 -12.366L6.76681 2.5898ZM2.53794 4.19742L-3.14756 -10.7583L-3.64125 -10.5707L-4.12148 -10.3508L2.53794 4.19742ZM1.48325 5.34605L-13.6214 0.0687819L-13.6249 0.0788305L1.48325 5.34605ZM1.66381 7.00936L-12.6006 14.2569L-12.5558 14.345L-12.51 14.4326L1.66381 7.00936ZM3.02337 9.6053H19.0234V5.66906L17.1972 2.1821L3.02337 9.6053ZM3.02337 11.4385L17.4704 18.3147L19.0234 15.052V11.4385H3.02337ZM3.03237 13.6272L17.1356 6.07079L17.1291 6.05873L3.03237 13.6272ZM9.02525 15.7917L8.41937 31.7802L8.7222 31.7917H9.02525V15.7917ZM14.8083 13.8252L1.50789 4.93142L1.50756 4.93191L14.8083 13.8252ZM14.9765 11.4801H-1.0235V14.3727L-0.0107509 17.0821L14.9765 11.4801ZM14.9765 9.60586L0.802356 2.18335L-1.0235 5.67003V9.60586H14.9765ZM13.8734 13.1991L0.580067 4.29482L0.574181 4.30361L0.568307 4.3124L13.8734 13.1991ZM9.04662 14.6667L8.4387 30.6551L8.75534 30.6672L9.07221 30.6667L9.04662 14.6667ZM4.02912 13.1052L18.061 5.41709L18.0605 5.41616L4.02912 13.1052ZM3.95487 12.1337V-3.86627H-7.8725L-11.3415 7.44095L3.95487 12.1337ZM14.0062 12.1337L29.5148 8.19902L26.4537 -3.86627H14.0062V12.1337ZM4.14837 11.0087H-11.8516V27.0087H4.14837V11.0087ZM4.14837 10.0294V-5.97058H-11.8516V10.0294H4.14837ZM13.8515 10.0294H29.8515V-5.97058H13.8515V10.0294ZM13.8515 11.0087V27.0087H29.8515V11.0087H13.8515ZM14.0737 8.90442V24.9044H23.7565L28.2481 16.3264L14.0737 8.90442ZM3.92619 8.90442L-10.2472 16.3284L-5.75508 24.9044H3.92619V8.90442ZM2.66337 6.49355L-11.5933 13.7564L-11.5521 13.8372L-11.51 13.9175L2.66337 6.49355ZM2.54244 5.72405L-12.6175 0.60789L-12.621 0.618095L-12.6244 0.628304L2.54244 5.72405ZM2.97331 5.23467L-2.7094 -9.72216L2.97331 21.2347V5.23467ZM7.15719 3.64505L1.73558 -11.4084L1.60461 -11.3612L1.47448 -11.3118L7.15719 3.64505ZM10.8326 3.64111L4.71493 18.4254L4.93355 18.5158L5.15474 18.5998L10.8326 3.64111ZM14.9894 5.21892L22.1449 -9.09191L21.4224 -9.45314L20.6673 -9.73977L14.9894 5.21892ZM15.4569 5.72405L30.6237 0.628303L30.6202 0.617769L15.4569 5.72405ZM15.3393 6.48736L29.5137 13.9094L29.5575 13.8257L29.6003 13.7415L15.3393 6.48736ZM9.56694 5.17673L8.61387 -10.7949L-6.43306 -9.89696V5.17673H9.56694ZM9.56694 6.97336H-6.43306V28.7944L14.3781 22.2329L9.56694 6.97336ZM10.4056 6.23648L25.7567 10.747L25.7578 10.7433L10.4056 6.23648ZM11.1037 5.85567L6.57195 21.2005L6.58834 21.2053L6.60474 21.2101L11.1037 5.85567ZM11.4845 6.55373L-3.86443 2.03594L-3.86692 2.04442L11.4845 6.55373ZM6.512 6.51492L-8.93421 10.688L-8.93315 10.6919L6.512 6.51492ZM6.90856 5.82473L11.1013 21.2656L11.111 21.263L6.90856 5.82473ZM7.59819 6.2213L-7.84999 10.3871L-7.84698 10.3983L-7.84395 10.4094L7.59819 6.2213ZM8.44194 6.97055L3.56553 22.2093L24.4419 28.8898V6.97055H8.44194ZM8.44194 5.17673H24.4419V-11.0874L8.17994 -10.8211L8.44194 5.17673ZM7.85581 4.61423H-8.14419V5.12553L-8.11154 5.63578L7.85581 4.61423ZM10.1525 4.61423L26.1525 4.64836L26.1525 4.63129V4.61423H10.1525ZM16.3394 7.00317L30.6061 14.2463C32.4356 10.6426 33.5312 5.5299 31.6196 0.064116L16.5166 5.34605L1.4136 10.628C-0.137926 6.19157 0.837232 2.19373 2.07277 -0.239907L16.3394 7.00317ZM16.5166 5.34605L31.6213 0.068783C29.0577 -7.26872 22.9482 -9.98695 21.8793 -10.4579L15.4282 4.18392L8.97708 18.8258C8.124 18.4499 6.90765 17.8223 5.63816 16.7586C4.34758 15.6773 2.48814 13.7035 1.41197 10.6233L16.5166 5.34605ZM15.4282 4.18392L21.1113 -10.7727L16.9263 -12.3629L11.2432 2.59373L5.56005 17.5504L9.74505 19.1406L15.4282 4.18392ZM11.2432 2.59373L17.0736 -12.3062C17.1004 -12.2956 17.0235 -12.3259 16.943 -12.3567C16.8626 -12.3874 16.7731 -12.421 16.675 -12.4569C16.4794 -12.5283 16.2581 -12.6054 16.0128 -12.6854C15.5249 -12.8444 14.9352 -13.0166 14.2574 -13.1765C12.9272 -13.4905 11.1159 -13.791 8.97631 -13.791V2.20898V18.209C8.13553 18.209 7.43826 18.0932 6.90708 17.9679C6.62879 17.9022 6.3599 17.8252 6.09772 17.7398C5.96528 17.6966 5.83306 17.6508 5.7008 17.6025C5.63439 17.5783 5.57006 17.5542 5.50817 17.5305C5.44619 17.5068 5.38109 17.4812 5.4128 17.4936L11.2432 2.59373ZM8.97631 2.20898V-13.791C6.41311 -13.791 3.83611 -13.3602 1.34815 -12.4647L6.76681 2.5898L12.1855 17.6443C11.1071 18.0324 10.0106 18.209 8.97631 18.209V2.20898ZM6.76681 2.5898L1.08131 -12.366L-3.14756 -10.7583L2.53794 4.19742L8.22344 19.1532L12.4523 17.5456L6.76681 2.5898ZM2.53794 4.19742L-4.12148 -10.3508C-5.01946 -9.9398 -11.0776 -7.21202 -13.6214 0.068783L1.48325 5.34605L16.5879 10.6233C15.516 13.6912 13.6709 15.6491 12.4176 16.7097C11.1706 17.765 9.98346 18.3859 9.19735 18.7457L2.53794 4.19742ZM1.48325 5.34605L-13.6249 0.0788305C-15.5319 5.54887 -14.4292 10.6578 -12.6006 14.2569L1.66381 7.00936L15.9282 -0.238201C17.1561 2.17852 18.1396 6.1726 16.5914 10.6133L1.48325 5.34605ZM1.66381 7.00936L-12.51 14.4326L-11.1504 17.0285L3.02337 9.6053L17.1972 2.1821L15.8376 -0.413835L1.66381 7.00936ZM3.02337 9.6053H-12.9766V11.4385H3.02337H19.0234V9.6053H3.02337ZM3.02337 11.4385L-11.4237 4.56224C-12.314 6.43276 -15.228 13.4407 -11.0644 21.1956L3.03237 13.6272L17.1291 6.05873C20.2858 11.9383 18.0266 17.1462 17.4704 18.3147L3.02337 11.4385ZM3.03237 13.6272L-11.0709 21.1836C-8.18829 26.5636 -3.50636 29.0709 -0.376537 30.2022C2.77448 31.3411 5.91493 31.6853 8.41937 31.7802L9.02525 15.7917L9.63112 -0.196853C8.85507 -0.226261 9.35064 -0.308152 10.5011 0.107692C11.6304 0.515875 14.9562 2.00307 17.1356 6.07079L3.03237 13.6272ZM9.02525 15.7917V31.7917C9.70761 31.7917 12.0662 31.766 14.8319 31.1972C16.2249 30.9108 18.2435 30.3839 20.3972 29.3422C22.4821 28.3336 25.6663 26.3718 28.1091 22.7184L14.8083 13.8252L1.50756 4.93191C3.31133 2.2342 5.51027 0.996088 6.46255 0.535445C7.48355 0.041558 8.22196 -0.113096 8.38619 -0.14687C8.69416 -0.2102 8.8002 -0.208328 9.02525 -0.208328V15.7917ZM14.8083 13.8252L28.1087 22.7189C30.9721 18.4368 32.363 12.297 29.9637 5.87812L14.9765 11.4801L-0.0107509 17.0821C-0.673508 15.309 -1.02077 13.0982 -0.683649 10.6805C-0.35498 8.32343 0.536546 6.38405 1.50789 4.93142L14.8083 13.8252ZM14.9765 11.4801H30.9765V9.60586H14.9765H-1.0235V11.4801H14.9765ZM14.9765 9.60586L29.1506 17.0284L30.5136 14.4257L16.3394 7.00317L2.16529 -0.419339L0.802356 2.18335L14.9765 9.60586ZM13.8734 13.1991L0.568307 4.3124C2.63544 1.2175 5.20612 -0.109747 6.06139 -0.516215C7.11225 -1.01564 7.88656 -1.19249 8.08407 -1.23638C8.45338 -1.31845 8.63004 -1.33268 9.02104 -1.33331L9.04662 14.6667L9.07221 30.6667C10.5185 30.6643 12.7075 30.5168 15.0258 30.0016C16.1979 29.7411 17.9309 29.2728 19.7971 28.3859C21.4677 27.5919 24.7104 25.7812 27.1786 22.0858L13.8734 13.1991ZM9.04662 14.6667L9.65455 -1.32178C8.87129 -1.35156 9.70806 -1.43356 11.2843 -0.792696C13.0351 -0.0809214 16.018 1.68831 18.061 5.41709L4.02912 13.1052L-10.0027 20.7932C-5.33788 29.3073 3.81204 30.4792 8.4387 30.6551L9.04662 14.6667ZM4.02912 13.1052L18.0605 5.41616C20.7828 10.384 19.8128 14.9959 19.2512 16.8265L3.95487 12.1337L-11.3415 7.44095C-12.0505 9.75197 -13.1228 15.0996 -10.0022 20.7942L4.02912 13.1052ZM3.95487 12.1337V28.1337H14.0062V12.1337V-3.86627H3.95487V12.1337ZM14.0062 12.1337L-1.50246 16.0685C-1.82605 14.793 -2.09481 12.9615 -1.82865 10.7767C-1.55087 8.49658 -0.739547 6.2649 0.580067 4.29482L13.8734 13.1991L27.1668 22.1034C30.5007 17.1262 30.4361 11.8302 29.5148 8.19902L14.0062 12.1337ZM4.14837 11.0087H20.1484V10.0294H4.14837H-11.8516V11.0087H4.14837ZM4.14837 10.0294V26.0294H13.8515V10.0294V-5.97058H4.14837V10.0294ZM13.8515 10.0294H-2.1485V11.0087H13.8515H29.8515V10.0294H13.8515ZM13.8515 11.0087V-4.99127H4.14837V11.0087V27.0087H13.8515V11.0087ZM14.0737 8.90442V-7.09558H3.92619V8.90442V24.9044H14.0737V8.90442ZM3.92619 8.90442L18.0996 1.48043L16.8367 -0.930442L2.66337 6.49355L-11.51 13.9175L-10.2472 16.3284L3.92619 8.90442ZM2.66337 6.49355L16.92 -0.769267C17.7723 0.903715 19.5527 5.33303 17.7093 10.8198L2.54244 5.72405L-12.6244 0.628304C-14.6107 6.54031 -12.7493 11.4871 -11.5933 13.7564L2.66337 6.49355ZM2.54244 5.72405L17.7024 10.8402C16.4899 14.4331 14.3079 16.5559 13.3058 17.4283C12.7086 17.9482 12.1717 18.3313 11.7841 18.589C11.5823 18.7232 11.4196 18.8242 11.3426 18.8716C11.2211 18.9462 11.3996 18.8369 11.4963 18.776C11.5424 18.7469 11.6344 18.6887 11.7492 18.6134C11.8372 18.5556 12.0848 18.3925 12.3914 18.1693C12.544 18.0582 12.8241 17.8504 13.1611 17.5721C13.3908 17.3824 14.1674 16.7392 15.0151 15.7703C15.419 15.3086 16.2876 14.271 17.092 12.7622C17.7106 11.6021 19.5738 7.84123 18.7821 2.76781C17.7646 -3.75218 13.2743 -7.68495 9.50781 -9.37015C6.49273 -10.7191 3.86095 -10.7653 2.97331 -10.7653V5.23467V21.2347C2.08571 21.2347 -0.54603 21.1885 -3.56109 19.8395C-7.32756 18.1543 -11.8179 14.2216 -12.8353 7.70159C-13.627 2.6282 -11.7638 -1.13266 -11.1453 -2.29276C-10.3409 -3.80145 -9.47233 -4.83902 -9.06841 -5.30069C-8.22081 -6.26947 -7.44433 -6.91266 -7.21476 -7.10223C-6.8779 -7.38041 -6.59805 -7.58797 -6.44562 -7.69897C-6.13954 -7.92185 -5.89255 -8.08454 -5.8053 -8.14178C-5.69125 -8.21661 -5.60017 -8.27424 -5.55516 -8.30259C-5.4627 -8.3608 -5.29087 -8.46617 -5.42101 -8.38613C-5.51538 -8.32809 -5.70379 -8.21117 -5.93736 -8.05583C-6.38848 -7.75579 -7.0134 -7.30978 -7.70565 -6.70713C-8.89788 -5.66921 -11.2982 -3.30167 -12.6175 0.60789L2.54244 5.72405ZM2.97331 5.23467L8.65602 20.1915L12.8399 18.6019L7.15719 3.64505L1.47448 -11.3118L-2.7094 -9.72216L2.97331 5.23467ZM7.15719 3.64505L12.5788 18.6985C11.3432 19.1435 10.1144 19.334 8.97631 19.334V3.33398V-12.666C6.5692 -12.666 4.11755 -12.2663 1.73558 -11.4084L7.15719 3.64505ZM8.97631 3.33398V19.334C8.04356 19.334 7.27189 19.2072 6.69424 19.0736C6.39186 19.0037 6.10228 18.9224 5.82324 18.8334C5.68275 18.7886 5.53997 18.7402 5.39422 18.688C5.32161 18.662 5.24476 18.6337 5.16367 18.6031C5.1518 18.5986 4.95864 18.5262 4.71493 18.4254L10.8326 3.64111L16.9502 -11.1432C15.668 -11.6737 12.7682 -12.666 8.97631 -12.666V3.33398ZM10.8326 3.64111L5.15474 18.5998L9.31161 20.1776L14.9894 5.21892L20.6673 -9.73977L16.5104 -11.3176L10.8326 3.64111ZM14.9894 5.21892L7.83402 19.5298C7.87984 19.5527 7.81424 19.5199 7.77472 19.4999C7.73002 19.4774 7.68339 19.4535 7.63501 19.4285C7.53857 19.3785 7.43818 19.3252 7.33435 19.2685C7.12801 19.1558 6.90366 19.027 6.66578 18.8807C6.20529 18.5974 5.61843 18.2021 4.97902 17.6727C3.90692 16.7851 1.56356 14.6016 0.293565 10.8303L15.4569 5.72405L30.6202 0.617769C29.2394 -3.48258 26.664 -5.91777 25.3867 -6.9753C24.6447 -7.58965 23.962 -8.04942 23.4308 -8.37611C23.1576 -8.54415 22.9043 -8.68939 22.6775 -8.81328C22.5635 -8.87558 22.4551 -8.9331 22.353 -8.98596C22.3019 -9.01247 22.253 -9.03741 22.2068 -9.06078C22.1657 -9.08153 22.0992 -9.11472 22.1449 -9.09191L14.9894 5.21892ZM15.4569 5.72405L0.290022 10.8198C-1.54042 5.3717 0.200421 0.958982 1.07828 -0.766808L15.3393 6.48736L29.6003 13.7415C30.7752 11.4319 32.597 6.50164 30.6237 0.628304L15.4569 5.72405ZM15.3393 6.48736L1.16491 -0.934658L-0.100715 1.4824L14.0737 8.90442L28.2481 16.3264L29.5137 13.9094L15.3393 6.48736ZM9.56694 5.17673H-6.43306V6.97336H9.56694H25.5669V5.17673H9.56694ZM9.56694 6.97336L14.3781 22.2329C17.8428 21.1405 23.639 17.9542 25.7567 10.747L10.4056 6.23648L-4.94545 1.72599C-3.02579 -4.80739 2.12241 -7.45588 4.75575 -8.28615L9.56694 6.97336ZM10.4056 6.23648L25.7578 10.7433C23.3796 18.8445 14.8454 23.6439 6.57195 21.2005L11.1037 5.85567L15.6354 -9.48914C6.76009 -12.1103 -2.39396 -6.96554 -4.94654 1.72969L10.4056 6.23648ZM11.1037 5.85567L6.60474 21.2101C-1.5868 18.81 -6.27345 10.2204 -3.86443 2.03594L11.4845 6.55373L26.8334 11.0715C29.4179 2.29077 24.3893 -6.92425 15.6026 -9.49879L11.1037 5.85567ZM11.4845 6.55373L-3.86692 2.04442C-1.71286 -5.28882 4.75782 -7.81389 9.00444 -7.81389V8.18611V24.1861C15.6068 24.1861 24.1171 20.3189 26.8359 11.063L11.4845 6.55373ZM9.00444 8.18611V-7.81389C13.28 -7.81389 19.9152 -5.21264 21.9572 2.33793L6.512 6.51492L-8.93315 10.6919C-6.35905 20.2101 2.32584 24.1861 9.00444 24.1861V8.18611ZM6.512 6.51492L21.9582 2.34184C24.1833 10.5777 19.3084 19.0371 11.1013 21.2656L6.90856 5.82473L2.71581 -9.61615C-6.09202 -7.22451 -11.3213 1.85254 -8.93421 10.688L6.512 6.51492ZM6.90856 5.82473L11.111 21.263C2.87424 23.5051 -5.62472 18.6391 -7.84999 10.3871L7.59819 6.2213L23.0464 2.0555C20.6591 -6.79727 11.538 -12.0177 2.70609 -9.61351L6.90856 5.82473ZM7.59819 6.2213L-7.84395 10.4094C-5.80875 17.9134 0.222605 21.1396 3.56553 22.2093L8.44194 6.97055L13.3183 -8.26824C14.9021 -7.76145 16.7108 -6.87289 18.4221 -5.3781C20.1276 -3.88831 22.0936 -1.45763 23.0403 2.03316L7.59819 6.2213ZM8.44194 6.97055H24.4419V5.17673H8.44194H-7.55806V6.97055H8.44194ZM8.44194 5.17673L8.17994 -10.8211C10.9812 -10.867 14.0417 -10.1351 16.8209 -8.33377C19.4661 -6.61929 21.0586 -4.45757 21.9675 -2.80223C22.8554 -1.18527 23.2714 0.264039 23.4804 1.19363C23.5927 1.69325 23.6677 2.14477 23.7192 2.53226C23.7452 2.72846 23.7661 2.91491 23.783 3.0904C23.7915 3.17836 23.799 3.26418 23.8056 3.34776C23.8089 3.38957 23.812 3.43088 23.815 3.47169C23.8164 3.49209 23.8178 3.51238 23.8192 3.53254C23.8199 3.54263 23.8206 3.55268 23.8212 3.5627C23.8215 3.56771 23.822 3.57522 23.8222 3.57772C23.8227 3.5852 23.8232 3.59269 7.85581 4.61423C-8.11154 5.63578 -8.11106 5.64327 -8.11058 5.65076C-8.11042 5.65327 -8.10992 5.66079 -8.10959 5.66582C-8.10893 5.67588 -8.10826 5.68598 -8.10757 5.69613C-8.10619 5.71644 -8.10477 5.73693 -8.10328 5.75761C-8.10032 5.79896 -8.09715 5.8411 -8.09373 5.88399C-8.08692 5.96972 -8.07915 6.05876 -8.0703 6.15091C-8.05263 6.33476 -8.0304 6.53347 -8.00227 6.74529C-7.94666 7.164 -7.86454 7.6601 -7.74019 8.21315C-7.50716 9.24962 -7.04767 10.8412 -6.08195 12.6C-3.75888 16.8306 1.32789 21.2954 8.70393 21.1746L8.44194 5.17673ZM7.85581 4.61423H23.8558C23.8558 13.1501 16.9339 20.0517 8.41831 20.0517V4.05173V-11.9483C-0.71832 -11.9483 -8.14419 -4.54381 -8.14419 4.61423H7.85581ZM8.41831 4.05173V20.0517H9.59V4.05173V-11.9483H8.41831V4.05173ZM9.59 4.05173V20.0517C1.06451 20.0517 -5.8475 13.1397 -5.8475 4.61423H10.1525H26.1525C26.1525 -4.53339 18.7376 -11.9483 9.59 -11.9483V4.05173ZM10.1525 4.61423C-5.84746 4.58011 -5.84744 4.57145 -5.84742 4.56278C-5.84741 4.55989 -5.84738 4.55119 -5.84735 4.5454C-5.8473 4.53379 -5.84724 4.52214 -5.84716 4.51046C-5.84701 4.4871 -5.84681 4.4636 -5.84655 4.43994C-5.84603 4.39264 -5.8453 4.34471 -5.84433 4.29618C-5.84239 4.19917 -5.83951 4.09944 -5.83552 3.99713C-5.82757 3.79299 -5.81512 3.57591 -5.79663 3.34726C-5.76005 2.89497 -5.69767 2.37035 -5.59066 1.79102C-5.38718 0.689414 -4.96467 -0.926817 -4.01029 -2.70016C-3.01564 -4.54832 -1.39832 -6.63462 1.08514 -8.27541C3.60647 -9.94122 6.27768 -10.6554 8.61387 -10.7949L9.56694 5.17673L10.52 21.1483C16.722 20.7782 21.6482 17.1471 24.1681 12.465C25.1958 10.5554 25.6551 8.80505 25.877 7.60343C25.9933 6.97408 26.0603 6.40797 26.0992 5.92669C26.1189 5.68355 26.132 5.45509 26.1402 5.2432C26.1443 5.13702 26.1473 5.03433 26.1493 4.93532C26.1503 4.88579 26.151 4.8371 26.1515 4.78929C26.1518 4.76538 26.152 4.74168 26.1522 4.7182C26.1522 4.70645 26.1523 4.69476 26.1524 4.68312C26.1524 4.67731 26.1524 4.6686 26.1524 4.6657C26.1524 4.65703 26.1525 4.64836 10.1525 4.61423Z" fill="#DCDCDC" fill-opacity="0.6" mask="url(#path-1-inside-1_2503_19794)"/>
</svg>
