<svg width="14" height="14" viewBox="0 0 14 14" fill="none" xmlns="http://www.w3.org/2000/svg">
<path d="M10.4999 2.33317C9.52575 1.604 8.31242 1.1665 6.99992 1.1665C3.77992 1.1665 1.16659 3.77984 1.16659 6.99984C1.16659 10.2198 3.77992 12.8332 6.99992 12.8332C10.2199 12.8332 12.8333 10.2198 12.8333 6.99984C12.8333 5.944 12.5533 4.95233 12.0574 4.09483L6.99992 6.99984" stroke="#DCDCDC" stroke-miterlimit="10" stroke-linecap="round" stroke-linejoin="round"/>
<path d="M10.0158 5.22666C10.325 5.74583 10.5 6.3525 10.5 7C10.5 8.93083 8.93083 10.5 7 10.5C5.06917 10.5 3.5 8.93083 3.5 7C3.5 5.06917 5.06917 3.5 7 3.5C7.53083 3.5 8.03833 3.61667 8.48749 3.8325" stroke="#DCDCDC" stroke-miterlimit="10" stroke-linecap="round" stroke-linejoin="round"/>
</svg>
