<svg width="14" height="14" viewBox="0 0 14 14" fill="none" xmlns="http://www.w3.org/2000/svg">
<path d="M5.25 4.52051H5.75C5.75 5.21086 6.30964 5.77051 7 5.77051V6.27051V6.77051C5.75736 6.77051 4.75 5.76315 4.75 4.52051H5.25ZM7 6.27051V5.77051C7.69036 5.77051 8.25 5.21086 8.25 4.52051H8.75H9.25C9.25 5.76315 8.24264 6.77051 7 6.77051V6.27051ZM8.75 4.52051H8.25C8.25 3.83015 7.69036 3.27051 7 3.27051V2.77051V2.27051C8.24264 2.27051 9.25 3.27787 9.25 4.52051H8.75ZM7 2.77051V3.27051C6.30964 3.27051 5.75 3.83015 5.75 4.52051H5.25H4.75C4.75 3.27787 5.75736 2.27051 7 2.27051V2.77051ZM8.75 8.02051V8.52051H5.25V8.02051V7.52051H8.75V8.02051ZM5.25 11.5205V11.0205H8.75V11.5205V12.0205H5.25V11.5205ZM8.75 11.5205V11.0205C9.44036 11.0205 10 10.4609 10 9.77051H10.5H11C11 11.0131 9.99264 12.0205 8.75 12.0205V11.5205ZM3.5 9.77051H4C4 10.4609 4.55964 11.0205 5.25 11.0205V11.5205V12.0205C4.00736 12.0205 3 11.0131 3 9.77051H3.5ZM5.25 8.02051V8.52051C4.55964 8.52051 4 9.08015 4 9.77051H3.5H3C3 8.52787 4.00736 7.52051 5.25 7.52051V8.02051ZM8.75 8.02051V7.52051C9.99264 7.52051 11 8.52787 11 9.77051H10.5H10C10 9.08015 9.44036 8.52051 8.75 8.52051V8.02051Z" fill="#DCDCDC"/>
<path d="M9.47788 6.05972C9.56988 5.91192 9.74252 5.83301 9.91663 5.83301C10.6415 5.83301 11.2291 5.24538 11.2291 4.52051C11.2291 3.79563 10.6415 3.20801 9.91663 3.20801C9.74252 3.20801 9.56988 3.1291 9.47788 2.98129C9.47381 2.97476 9.46971 2.96824 9.46559 2.96173C9.31241 2.71994 9.39002 2.37757 9.67454 2.34625C9.75403 2.3375 9.8348 2.33301 9.91663 2.33301C11.1247 2.33301 12.1041 3.31238 12.1041 4.52051C12.1041 5.72863 11.1247 6.70801 9.91663 6.70801C9.8348 6.70801 9.75403 6.70352 9.67454 6.69476C9.39002 6.66344 9.31241 6.32108 9.46559 6.07928C9.46971 6.07278 9.47381 6.06626 9.47788 6.05972Z" fill="#DCDCDC"/>
<path d="M11.2535 10.6845C11.3197 10.574 11.4366 10.4997 11.5654 10.4997H11.6666C12.3915 10.4997 12.9791 9.91205 12.9791 9.18717C12.9791 8.4623 12.3915 7.87467 11.6666 7.87467H11.5654C11.4366 7.87467 11.3197 7.80031 11.2535 7.68983C11.0918 7.42016 11.2672 6.99967 11.5816 6.99967H11.6666C12.8747 6.99967 13.8541 7.97905 13.8541 9.18717C13.8541 10.3953 12.8747 11.3747 11.6666 11.3747H11.5816C11.2672 11.3747 11.0918 10.9542 11.2535 10.6845Z" fill="#DCDCDC"/>
<path d="M4.53432 6.07928C4.68751 6.32108 4.60989 6.66344 4.32538 6.69476C4.24589 6.70352 4.16511 6.70801 4.08329 6.70801C2.87517 6.70801 1.89579 5.72863 1.89579 4.52051C1.89579 3.31238 2.87517 2.33301 4.08329 2.33301C4.16511 2.33301 4.24589 2.3375 4.32538 2.34625C4.60989 2.37757 4.68751 2.71994 4.53432 2.96173C4.5302 2.96824 4.52611 2.97475 4.52204 2.98129C4.43003 3.1291 4.2574 3.20801 4.08329 3.20801C3.35842 3.20801 2.77079 3.79563 2.77079 4.52051C2.77079 5.24538 3.35842 5.83301 4.08329 5.83301C4.25739 5.83301 4.43003 5.91192 4.52204 6.05972C4.52611 6.06626 4.5302 6.07278 4.53432 6.07928Z" fill="#DCDCDC"/>
<path d="M2.74646 10.6845C2.9081 10.9542 2.73269 11.3747 2.41828 11.3747H2.33329C1.12517 11.3747 0.145792 10.3953 0.145792 9.18717C0.145792 7.97905 1.12517 6.99967 2.33329 6.99967H2.41828C2.73269 6.99967 2.9081 7.42016 2.74646 7.68983C2.68024 7.80031 2.56336 7.87467 2.43455 7.87467H2.33329C1.60842 7.87467 1.02079 8.4623 1.02079 9.18717C1.02079 9.91205 1.60842 10.4997 2.33329 10.4997H2.43455C2.56336 10.4997 2.68024 10.574 2.74646 10.6845Z" fill="#DCDCDC"/>
<path d="M9.47788 6.05972C9.56988 5.91192 9.74252 5.83301 9.91663 5.83301C10.6415 5.83301 11.2291 5.24538 11.2291 4.52051C11.2291 3.79563 10.6415 3.20801 9.91663 3.20801C9.74252 3.20801 9.56988 3.1291 9.47788 2.98129C9.47381 2.97476 9.46971 2.96824 9.46559 2.96173C9.31241 2.71994 9.39002 2.37757 9.67454 2.34625C9.75403 2.3375 9.8348 2.33301 9.91663 2.33301C11.1247 2.33301 12.1041 3.31238 12.1041 4.52051C12.1041 5.72863 11.1247 6.70801 9.91663 6.70801C9.8348 6.70801 9.75403 6.70352 9.67454 6.69476C9.39002 6.66344 9.31241 6.32108 9.46559 6.07928C9.46971 6.07278 9.47381 6.06626 9.47788 6.05972Z" stroke="#DCDCDC" stroke-width="0.2"/>
<path d="M11.2535 10.6845C11.3197 10.574 11.4366 10.4997 11.5654 10.4997H11.6666C12.3915 10.4997 12.9791 9.91205 12.9791 9.18717C12.9791 8.4623 12.3915 7.87467 11.6666 7.87467H11.5654C11.4366 7.87467 11.3197 7.80031 11.2535 7.68983C11.0918 7.42016 11.2672 6.99967 11.5816 6.99967H11.6666C12.8747 6.99967 13.8541 7.97905 13.8541 9.18717C13.8541 10.3953 12.8747 11.3747 11.6666 11.3747H11.5816C11.2672 11.3747 11.0918 10.9542 11.2535 10.6845Z" stroke="#DCDCDC" stroke-width="0.2"/>
<path d="M4.53432 6.07928C4.68751 6.32108 4.60989 6.66344 4.32538 6.69476C4.24589 6.70352 4.16511 6.70801 4.08329 6.70801C2.87517 6.70801 1.89579 5.72863 1.89579 4.52051C1.89579 3.31238 2.87517 2.33301 4.08329 2.33301C4.16511 2.33301 4.24589 2.3375 4.32538 2.34625C4.60989 2.37757 4.68751 2.71994 4.53432 2.96173C4.5302 2.96824 4.52611 2.97475 4.52204 2.98129C4.43003 3.1291 4.2574 3.20801 4.08329 3.20801C3.35842 3.20801 2.77079 3.79563 2.77079 4.52051C2.77079 5.24538 3.35842 5.83301 4.08329 5.83301C4.25739 5.83301 4.43003 5.91192 4.52204 6.05972C4.52611 6.06626 4.5302 6.07278 4.53432 6.07928Z" stroke="#DCDCDC" stroke-width="0.2"/>
<path d="M2.74646 10.6845C2.9081 10.9542 2.73269 11.3747 2.41828 11.3747H2.33329C1.12517 11.3747 0.145792 10.3953 0.145792 9.18717C0.145792 7.97905 1.12517 6.99967 2.33329 6.99967H2.41828C2.73269 6.99967 2.9081 7.42016 2.74646 7.68983C2.68024 7.80031 2.56336 7.87467 2.43455 7.87467H2.33329C1.60842 7.87467 1.02079 8.4623 1.02079 9.18717C1.02079 9.91205 1.60842 10.4997 2.33329 10.4997H2.43455C2.56336 10.4997 2.68024 10.574 2.74646 10.6845Z" stroke="#DCDCDC" stroke-width="0.2"/>
</svg>
