<svg width="14" height="14" viewBox="0 0 14 14" fill="none" xmlns="http://www.w3.org/2000/svg">
<path d="M1.20749 2.68367C1.67416 0.665339 4.71332 0.665339 5.17416 2.68367C5.44832 3.86784 4.69582 4.87117 4.04249 5.49534C3.56416 5.95034 2.81166 5.94451 2.33332 5.49534C1.68582 4.87117 0.933325 3.86784 1.20749 2.68367Z" stroke="#DCDCDC"/>
<path d="M8.79083 9.68367C9.2575 7.66534 12.3142 7.66534 12.7808 9.68367C13.055 10.8678 12.3025 11.8712 11.6433 12.4953C11.165 12.9503 10.4067 12.9445 9.92833 12.4953C9.26916 11.8712 8.51666 10.8678 8.79083 9.68367Z" stroke="#DCDCDC"/>
<path d="M6.99999 2.91699H8.56332C9.64249 2.91699 10.1442 4.25283 9.33332 4.96449L4.67249 9.04199C3.86166 9.74783 4.36332 11.0837 5.43665 11.0837H6.99999" stroke="#DCDCDC" stroke-linecap="round" stroke-linejoin="round"/>
<path d="M3.20029 3.20866H3.20703" stroke="#DCDCDC" stroke-linecap="round" stroke-linejoin="round"/>
<path d="M10.7836 10.2087H10.7903" stroke="#DCDCDC" stroke-linecap="round" stroke-linejoin="round"/>
</svg>
