<svg width="14" height="14" viewBox="0 0 14 14" fill="none" xmlns="http://www.w3.org/2000/svg">
<path d="M3.19084 5.25033C4.31842 5.25033 5.2325 4.33624 5.2325 3.20866C5.2325 2.08108 4.31842 1.16699 3.19084 1.16699C2.06326 1.16699 1.14917 2.08108 1.14917 3.20866C1.14917 4.33624 2.06326 5.25033 3.19084 5.25033Z" stroke="#DCDCDC"/>
<path d="M9.89915 8.75H11.6491C12.2908 8.75 12.8158 9.275 12.8158 9.91667V11.6667C12.8158 12.3083 12.2908 12.8333 11.6491 12.8333H9.89915C9.25748 12.8333 8.73248 12.3083 8.73248 11.6667V9.91667C8.73248 9.275 9.25748 8.75 9.89915 8.75Z" stroke="#DCDCDC"/>
<path d="M6.99999 2.91699H8.56332C9.64249 2.91699 10.1442 4.25283 9.33332 4.96449L4.67249 9.04199C3.86166 9.74783 4.36332 11.0837 5.43665 11.0837H6.99999" stroke="#DCDCDC" stroke-linecap="round" stroke-linejoin="round"/>
<path d="M3.20029 3.20866H3.20703" stroke="#DCDCDC" stroke-linecap="round" stroke-linejoin="round"/>
<path d="M10.7836 10.7917H10.7903" stroke="#DCDCDC" stroke-linecap="round" stroke-linejoin="round"/>
</svg>
