<svg width="21" height="21" viewBox="0 0 21 21" fill="none" xmlns="http://www.w3.org/2000/svg">
<g clip-path="url(#clip0_2385_25284)">
<path d="M5.32227 0.5H0.615234C0.551603 0.5 0.5 0.551603 0.5 0.615234V5.32227C0.500018 7.6476 1.30985 9.84561 2.79492 11.5986L2.91309 11.7383V12.8076C2.91331 15.8907 5.42279 18.3994 8.50586 18.3994C8.56942 18.3993 8.62109 18.3478 8.62109 18.2842V14.9355L9.17383 14.9951C9.52243 15.0325 9.87487 15.0518 10.2295 15.0518H12.9043L12.7227 15.6895C12.5828 16.1793 12.5449 16.6984 12.6162 17.2021C12.727 17.9841 13.0803 18.6915 13.6406 19.252L14.8555 20.4668C14.877 20.4881 14.9062 20.5 14.9365 20.5C14.9669 20.5 14.9961 20.4881 15.0176 20.4668V20.4658L16.2324 19.252C16.7076 18.7767 17.0329 18.1972 17.1885 17.5566L17.2598 17.2598L17.5557 17.1885L17.7939 17.1221C18.3405 16.9491 18.8361 16.6482 19.252 16.2324L20.4658 15.0176L20.4912 14.9805C20.4969 14.9667 20.5 14.9518 20.5 14.9365C20.5 14.9059 20.4874 14.877 20.4658 14.8555L19.252 13.6406C18.6915 13.0803 17.9841 12.727 17.2021 12.6162C16.6984 12.5449 16.1793 12.5827 15.6895 12.7227L15.0518 12.9053V10.2295C15.0518 9.8751 15.0324 9.52319 14.9951 9.1748L14.9355 8.62207H18.2852C18.3486 8.62199 18.4002 8.57025 18.4004 8.50684C18.4004 5.4236 15.8908 2.91406 12.8076 2.91406H11.7393L11.5996 2.7959C9.84641 1.31034 7.64796 0.500009 5.32227 0.5ZM3.97852 12.7783C5.15431 13.7676 6.52789 14.4533 8.00391 14.7969L8.39062 14.8867V18.1982L7.82715 18.127C5.31575 17.8083 3.34229 15.747 3.1582 13.1963L3.07227 12.0156L3.97852 12.7783ZM10.0176 1.96777C10.7488 2.38487 11.4287 2.90238 12.0391 3.5127C13.8325 5.30615 14.8213 7.69319 14.8213 10.2295V14.8213H10.2295C7.69315 14.8213 5.30615 13.8325 3.5127 12.0391C2.90243 11.4288 2.38483 10.7488 1.96777 10.0176L1.56445 9.31055L2.37793 9.27051C6.09529 9.08757 9.08757 6.09529 9.27051 2.37793L9.31055 1.56445L10.0176 1.96777ZM5.32227 0.730469C6.50283 0.730473 7.65202 0.944646 8.72461 1.35547L9.03613 1.47461L9.0459 1.80762C9.04795 1.87554 9.0498 1.94592 9.0498 2.0166C9.04975 5.8949 5.8949 9.04975 2.0166 9.0498C1.94591 9.0498 1.87554 9.04795 1.80762 9.0459L1.47461 9.03613L1.35547 8.72461C0.944651 7.65203 0.730478 6.50286 0.730469 5.32227V0.730469H5.32227ZM13.1973 3.1582C15.748 3.34234 17.8084 5.31669 18.127 7.82812L18.1982 8.3916H14.8867L14.7969 8.00488C14.4534 6.52885 13.7675 5.15535 12.7783 3.97949L12.0166 3.07324L13.1973 3.1582ZM15.0518 13.2139L15.3555 13.085C15.9221 12.8433 16.5554 12.7577 17.1699 12.8447C17.9009 12.9483 18.5658 13.2807 19.0889 13.8037L20.2217 14.9365L19.0889 16.0693C18.5567 16.6014 17.8787 16.9357 17.1328 17.0332C17.081 17.04 17.04 17.0809 17.0332 17.1328C16.9358 17.8787 16.6014 18.5567 16.0693 19.0889L14.9365 20.2217L13.8037 19.0889C13.2808 18.5658 12.9483 17.901 12.8447 17.1699C12.7576 16.5553 12.8434 15.922 13.085 15.3555L13.2139 15.0518H14.9365C15.0001 15.0517 15.0517 15.0001 15.0518 14.9365V13.2139Z" fill="black" stroke="#DCDCDC"/>
<path d="M4.07129 4.22754C4.04168 4.22764 4.01888 4.23833 3.99902 4.25879C3.97673 4.28192 3.95812 4.31915 3.95605 4.36523C3.95604 4.36672 3.9563 4.38779 3.98633 4.41699C4.01845 4.44815 4.05417 4.45783 4.07129 4.45801C4.10112 4.45801 4.12458 4.44732 4.14453 4.42676C4.16682 4.40362 4.18544 4.36638 4.1875 4.32031C4.18752 4.31883 4.18725 4.29775 4.15723 4.26855C4.12481 4.23709 4.08823 4.22754 4.07129 4.22754Z" fill="#DCDCDC" stroke="#DCDCDC"/>
</g>
<defs>
<clipPath id="clip0_2385_25284">
<rect width="21" height="21" fill="white" transform="matrix(-1 0 0 1 21 0)"/>
</clipPath>
</defs>
</svg>
