<svg width="14" height="14" viewBox="0 0 14 14" fill="none" xmlns="http://www.w3.org/2000/svg">
<path d="M11.9584 12.8337V2.91699C11.9584 1.75033 11.1767 1.16699 10.2084 1.16699H5.54171C4.57337 1.16699 3.79171 1.75033 3.79171 2.91699V12.8337H11.9584Z" stroke="#DCDCDC" stroke-linecap="round" stroke-linejoin="round"/>
<path d="M12.8334 12.833H2.91671" stroke="#DCDCDC" stroke-linecap="round" stroke-linejoin="round"/>
<path d="M9.10587 5.83363H6.63837C6.03171 5.83363 5.53588 5.54196 5.53588 4.73113V4.01363C5.53588 3.2028 6.03171 2.91113 6.63837 2.91113H9.10587C9.71254 2.91113 10.2084 3.2028 10.2084 4.01363V4.73113C10.2084 5.54196 9.71254 5.83363 9.10587 5.83363Z" stroke="#DCDCDC" stroke-linecap="round" stroke-linejoin="round"/>
<path d="M10.2084 7.58301H8.45837" stroke="#DCDCDC" stroke-linecap="round" stroke-linejoin="round"/>
<path d="M3.79163 9.33916L1.16663 9.33333V5.83333L2.33329 5.25" stroke="#DCDCDC" stroke-linecap="round" stroke-linejoin="round"/>
</svg>
