<svg width="21" height="21" viewBox="0 0 21 21" fill="none" xmlns="http://www.w3.org/2000/svg">
<path d="M11.1562 10.8281C11.1562 11.0022 11.2256 11.1689 11.3486 11.292C11.4717 11.4151 11.6385 11.4844 11.8125 11.4844C11.9431 11.4844 12.0697 11.4455 12.1768 11.374L12.2764 11.292C12.3994 11.1689 12.4688 11.0022 12.4688 10.8281V9.51562C12.4688 9.38502 12.4298 9.25843 12.3584 9.15137L12.2764 9.05176C12.1533 8.92869 11.9865 8.85938 11.8125 8.85938C11.6385 8.85938 11.4717 8.92869 11.3486 9.05176C11.2256 9.17483 11.1562 9.34158 11.1562 9.51562V10.8281Z" fill="#DCDCDC" stroke="#DCDCDC" stroke-width="8"/>
<path d="M8.53125 10.8281C8.53125 11.0022 8.60056 11.1689 8.72363 11.292C8.8467 11.4151 9.01345 11.4844 9.1875 11.4844C9.3181 11.4844 9.4447 11.4455 9.55176 11.374L9.65137 11.292C9.77444 11.1689 9.84375 11.0022 9.84375 10.8281V9.51562C9.84375 9.38502 9.80483 9.25843 9.7334 9.15137L9.65137 9.05176C9.5283 8.92869 9.36155 8.85938 9.1875 8.85938C9.01345 8.85938 8.8467 8.92869 8.72363 9.05176C8.60056 9.17483 8.53125 9.34158 8.53125 9.51562V10.8281Z" fill="#DCDCDC" stroke="#DCDCDC" stroke-width="8"/>
<mask id="path-3-inside-1_2385_25292" fill="white">
<path d="M2.625 7.21875H5.25C5.25205 6.4724 5.10604 5.73307 4.82044 5.04352C4.53484 4.35398 4.11531 3.72793 3.58614 3.20161L3.4735 3.08897C3.38175 2.99719 3.31927 2.88027 3.29396 2.75298C3.26865 2.6257 3.28165 2.49377 3.33131 2.37387C3.38097 2.25397 3.46507 2.15149 3.57297 2.07938C3.68087 2.00727 3.80772 1.96877 3.9375 1.96875C4.98252 1.9702 6.00339 2.28314 6.86968 2.86761C7.73598 3.45208 8.40837 4.28153 8.80097 5.25H12.199C12.5916 4.28153 13.264 3.45208 14.1303 2.86762C14.9966 2.28315 16.0175 1.9702 17.0625 1.96875C17.1923 1.96876 17.3191 2.00726 17.4271 2.07937C17.535 2.15148 17.6191 2.25397 17.6687 2.37387C17.7184 2.49378 17.7314 2.62572 17.7061 2.75301C17.6808 2.8803 17.6183 2.99722 17.5265 3.089L17.4139 3.20165C16.8847 3.72796 16.4652 4.35401 16.1796 5.04354C15.894 5.73308 15.748 6.47241 15.75 7.21875H18.375C18.549 7.21875 18.716 7.28789 18.839 7.41096C18.9621 7.53403 19.0312 7.70095 19.0312 7.875C19.0305 8.57095 18.7536 9.23816 18.2615 9.73027C17.7694 10.2224 17.1022 10.4992 16.4062 10.5H15.75V12.1406C15.751 12.5463 15.6602 12.9469 15.4845 13.3125C15.3088 13.6782 15.0527 13.9993 14.7353 14.252L14.6317 14.3351C14.4683 14.4652 14.3365 14.6305 14.246 14.8187C14.1556 15.0069 14.1089 15.2131 14.1094 15.4219C14.1094 16.3791 13.7291 17.2972 13.0522 17.9741C12.3753 18.651 11.4573 19.0312 10.5 19.0312C9.54273 19.0312 8.62468 18.651 7.94779 17.9741C7.2709 17.2972 6.89062 16.3791 6.89062 15.4219C6.89114 15.213 6.84441 15.0068 6.75393 14.8186C6.66345 14.6303 6.53157 14.465 6.36815 14.335C6.01844 14.0565 5.73621 13.7026 5.54258 13.2997C5.34895 12.8968 5.24893 12.4553 5.25 12.0083V10.5H4.59375C3.8978 10.4992 3.23059 10.2224 2.73848 9.73027C2.24637 9.23816 1.96955 8.57095 1.96875 7.875C1.96875 7.70095 2.03789 7.53403 2.16096 7.41096C2.28403 7.28789 2.45095 7.21875 2.625 7.21875ZM5.58141 3.6411C6.11308 4.53144 6.43807 5.52979 6.53238 6.5625H7.82037C7.71234 5.93038 7.45204 5.33407 7.06195 4.82508C6.67186 4.31609 6.16371 3.90973 5.58141 3.6411ZM13.1796 6.5625H14.4676C14.5619 5.52979 14.8869 4.53144 15.4186 3.6411C14.8363 3.90973 14.3281 4.31609 13.9381 4.82508C13.548 5.33407 13.2877 5.93038 13.1796 6.5625ZM16.4062 9.1875C16.6366 9.18736 16.8628 9.12666 17.0623 9.01147C17.2618 8.89629 17.4274 8.73068 17.5427 8.53125H15.75V9.1875H16.4062ZM6.5625 12.0083C6.56188 12.2584 6.61782 12.5054 6.72613 12.7308C6.83444 12.9562 6.99233 13.1543 7.18797 13.3101C7.50546 13.5627 7.76168 13.884 7.93748 14.2497C8.11327 14.6154 8.20409 15.0161 8.20312 15.4219C8.20386 15.9162 8.36384 16.3972 8.65935 16.7934C8.95485 17.1897 9.37017 17.4803 9.84375 17.622V15.6936L9.05162 14.9015C8.93164 14.7778 8.86512 14.6119 8.86643 14.4396C8.86775 14.2672 8.93678 14.1024 9.05863 13.9805C9.18048 13.8587 9.34536 13.7896 9.51768 13.7883C9.68999 13.787 9.85591 13.8535 9.97959 13.9735L10.5 14.4937L11.0204 13.9735C11.1441 13.8535 11.31 13.787 11.4823 13.7883C11.6546 13.7897 11.8195 13.8587 11.9413 13.9805C12.0632 14.1024 12.1322 14.2673 12.1335 14.4396C12.1348 14.6119 12.0683 14.7778 11.9483 14.9015L11.1562 15.6936V17.622C11.6298 17.4803 12.0451 17.1897 12.3407 16.7934C12.6362 16.3972 12.7961 15.9162 12.7969 15.4219C12.7959 15.0162 12.8866 14.6156 13.0623 14.25C13.238 13.8843 13.4942 13.5632 13.8115 13.3105L13.9152 13.2274C14.0786 13.0973 14.2104 12.932 14.3008 12.7438C14.3913 12.5556 14.438 12.3494 14.4375 12.1406V7.875H12.4688C12.2947 7.875 12.1278 7.80586 12.0047 7.68279C11.8816 7.55972 11.8125 7.3928 11.8125 7.21875V6.5625H9.1875V7.21875C9.18504 7.39115 9.11581 7.55588 8.99437 7.67828C8.87293 7.80067 8.70875 7.87119 8.53637 7.875L6.5625 7.89055V12.0083ZM4.59375 9.1875H5.25V8.53125H3.45732C3.57257 8.73068 3.73824 8.89629 3.9377 9.01147C4.13717 9.12666 4.36342 9.18736 4.59375 9.1875Z"/>
</mask>
<path d="M2.625 7.21875H5.25C5.25205 6.4724 5.10604 5.73307 4.82044 5.04352C4.53484 4.35398 4.11531 3.72793 3.58614 3.20161L3.4735 3.08897C3.38175 2.99719 3.31927 2.88027 3.29396 2.75298C3.26865 2.6257 3.28165 2.49377 3.33131 2.37387C3.38097 2.25397 3.46507 2.15149 3.57297 2.07938C3.68087 2.00727 3.80772 1.96877 3.9375 1.96875C4.98252 1.9702 6.00339 2.28314 6.86968 2.86761C7.73598 3.45208 8.40837 4.28153 8.80097 5.25H12.199C12.5916 4.28153 13.264 3.45208 14.1303 2.86762C14.9966 2.28315 16.0175 1.9702 17.0625 1.96875C17.1923 1.96876 17.3191 2.00726 17.4271 2.07937C17.535 2.15148 17.6191 2.25397 17.6687 2.37387C17.7184 2.49378 17.7314 2.62572 17.7061 2.75301C17.6808 2.8803 17.6183 2.99722 17.5265 3.089L17.4139 3.20165C16.8847 3.72796 16.4652 4.35401 16.1796 5.04354C15.894 5.73308 15.748 6.47241 15.75 7.21875H18.375C18.549 7.21875 18.716 7.28789 18.839 7.41096C18.9621 7.53403 19.0312 7.70095 19.0312 7.875C19.0305 8.57095 18.7536 9.23816 18.2615 9.73027C17.7694 10.2224 17.1022 10.4992 16.4062 10.5H15.75V12.1406C15.751 12.5463 15.6602 12.9469 15.4845 13.3125C15.3088 13.6782 15.0527 13.9993 14.7353 14.252L14.6317 14.3351C14.4683 14.4652 14.3365 14.6305 14.246 14.8187C14.1556 15.0069 14.1089 15.2131 14.1094 15.4219C14.1094 16.3791 13.7291 17.2972 13.0522 17.9741C12.3753 18.651 11.4573 19.0312 10.5 19.0312C9.54273 19.0312 8.62468 18.651 7.94779 17.9741C7.2709 17.2972 6.89062 16.3791 6.89062 15.4219C6.89114 15.213 6.84441 15.0068 6.75393 14.8186C6.66345 14.6303 6.53157 14.465 6.36815 14.335C6.01844 14.0565 5.73621 13.7026 5.54258 13.2997C5.34895 12.8968 5.24893 12.4553 5.25 12.0083V10.5H4.59375C3.8978 10.4992 3.23059 10.2224 2.73848 9.73027C2.24637 9.23816 1.96955 8.57095 1.96875 7.875C1.96875 7.70095 2.03789 7.53403 2.16096 7.41096C2.28403 7.28789 2.45095 7.21875 2.625 7.21875ZM5.58141 3.6411C6.11308 4.53144 6.43807 5.52979 6.53238 6.5625H7.82037C7.71234 5.93038 7.45204 5.33407 7.06195 4.82508C6.67186 4.31609 6.16371 3.90973 5.58141 3.6411ZM13.1796 6.5625H14.4676C14.5619 5.52979 14.8869 4.53144 15.4186 3.6411C14.8363 3.90973 14.3281 4.31609 13.9381 4.82508C13.548 5.33407 13.2877 5.93038 13.1796 6.5625ZM16.4062 9.1875C16.6366 9.18736 16.8628 9.12666 17.0623 9.01147C17.2618 8.89629 17.4274 8.73068 17.5427 8.53125H15.75V9.1875H16.4062ZM6.5625 12.0083C6.56188 12.2584 6.61782 12.5054 6.72613 12.7308C6.83444 12.9562 6.99233 13.1543 7.18797 13.3101C7.50546 13.5627 7.76168 13.884 7.93748 14.2497C8.11327 14.6154 8.20409 15.0161 8.20312 15.4219C8.20386 15.9162 8.36384 16.3972 8.65935 16.7934C8.95485 17.1897 9.37017 17.4803 9.84375 17.622V15.6936L9.05162 14.9015C8.93164 14.7778 8.86512 14.6119 8.86643 14.4396C8.86775 14.2672 8.93678 14.1024 9.05863 13.9805C9.18048 13.8587 9.34536 13.7896 9.51768 13.7883C9.68999 13.787 9.85591 13.8535 9.97959 13.9735L10.5 14.4937L11.0204 13.9735C11.1441 13.8535 11.31 13.787 11.4823 13.7883C11.6546 13.7897 11.8195 13.8587 11.9413 13.9805C12.0632 14.1024 12.1322 14.2673 12.1335 14.4396C12.1348 14.6119 12.0683 14.7778 11.9483 14.9015L11.1562 15.6936V17.622C11.6298 17.4803 12.0451 17.1897 12.3407 16.7934C12.6362 16.3972 12.7961 15.9162 12.7969 15.4219C12.7959 15.0162 12.8866 14.6156 13.0623 14.25C13.238 13.8843 13.4942 13.5632 13.8115 13.3105L13.9152 13.2274C14.0786 13.0973 14.2104 12.932 14.3008 12.7438C14.3913 12.5556 14.438 12.3494 14.4375 12.1406V7.875H12.4688C12.2947 7.875 12.1278 7.80586 12.0047 7.68279C11.8816 7.55972 11.8125 7.3928 11.8125 7.21875V6.5625H9.1875V7.21875C9.18504 7.39115 9.11581 7.55588 8.99437 7.67828C8.87293 7.80067 8.70875 7.87119 8.53637 7.875L6.5625 7.89055V12.0083ZM4.59375 9.1875H5.25V8.53125H3.45732C3.57257 8.73068 3.73824 8.89629 3.9377 9.01147C4.13717 9.12666 4.36342 9.18736 4.59375 9.1875Z" fill="#DCDCDC" stroke="#DCDCDC" stroke-width="16" mask="url(#path-3-inside-1_2385_25292)"/>
</svg>
