<svg width="18" height="20" viewBox="0 0 18 20" fill="none" xmlns="http://www.w3.org/2000/svg">
<path d="M17.9999 10.2194C17.9999 9.59937 17.9399 8.95938 17.8399 8.35938H9.17993V11.8994H14.1399C13.9399 13.0394 13.2799 14.0394 12.2999 14.6794L15.2599 16.9794C16.9999 15.3594 17.9999 12.9994 17.9999 10.2194Z" fill="#4280EF"/>
<path d="M9.17998 19.1793C11.66 19.1793 13.74 18.3593 15.26 16.9593L12.3 14.6793C11.48 15.2393 10.42 15.5593 9.17998 15.5593C6.77998 15.5593 4.75998 13.9393 4.01998 11.7793L0.97998 14.1193C2.53998 17.2193 5.69998 19.1793 9.17998 19.1793Z" fill="#34A353"/>
<path d="M4.01988 11.7599C3.63988 10.6199 3.63988 9.37988 4.01988 8.23988L0.979883 5.87988C-0.320117 8.47988 -0.320117 11.5399 0.979883 14.1199L4.01988 11.7599Z" fill="#F6B704"/>
<path d="M9.17998 4.45968C10.48 4.43968 11.76 4.93969 12.7 5.83968L15.32 3.19968C13.66 1.63968 11.46 0.799685 9.17998 0.819685C5.69998 0.819685 2.53998 2.77969 0.97998 5.87969L4.01998 8.23968C4.75998 6.05968 6.77998 4.45968 9.17998 4.45968Z" fill="#E54335"/>
</svg>
