<svg width="18" height="18" viewBox="0 0 18 18" fill="none" xmlns="http://www.w3.org/2000/svg">
<path fill-rule="evenodd" clip-rule="evenodd" d="M9 4.6875C7.4467 4.6875 6.1875 5.9467 6.1875 7.5C6.1875 9.0533 7.4467 10.3125 9 10.3125C10.5533 10.3125 11.8125 9.0533 11.8125 7.5C11.8125 5.9467 10.5533 4.6875 9 4.6875ZM7.3125 7.5C7.3125 6.56802 8.06802 5.8125 9 5.8125C9.93198 5.8125 10.6875 6.56802 10.6875 7.5C10.6875 8.43198 9.93198 9.1875 9 9.1875C8.06802 9.1875 7.3125 8.43198 7.3125 7.5Z" fill="#B9362E"/>
<path fill-rule="evenodd" clip-rule="evenodd" d="M9 0.1875C5.3375 0.1875 2.4375 3.36958 2.4375 7.20652C2.4375 8.43706 3.04883 9.88608 3.81798 11.2459C4.59958 12.6277 5.59716 14.0072 6.47177 15.1225L6.50095 15.1597C6.92785 15.7041 7.29153 16.1679 7.64418 16.4883C8.02893 16.8378 8.45321 17.0666 9 17.0666C9.54679 17.0666 9.97107 16.8378 10.3558 16.4883C10.7085 16.1679 11.0722 15.7041 11.4991 15.1597L11.5282 15.1225C12.4028 14.0072 13.4004 12.6277 14.182 11.2459C14.9512 9.88608 15.5625 8.43706 15.5625 7.20652C15.5625 3.36958 12.6625 0.1875 9 0.1875ZM3.5625 7.20652C3.5625 3.91178 6.03509 1.3125 9 1.3125C11.9649 1.3125 14.4375 3.91178 14.4375 7.20652C14.4375 8.12639 13.9578 9.35727 13.2028 10.692C12.4603 12.0048 11.5007 13.3345 10.643 14.4283C10.1787 15.0202 9.87309 15.4069 9.59939 15.6556C9.34976 15.8823 9.18313 15.9416 9 15.9416C8.81687 15.9416 8.65024 15.8823 8.40061 15.6556C8.12691 15.4069 7.82126 15.0202 7.35704 14.4283C6.49934 13.3345 5.53971 12.0048 4.79719 10.692C4.04222 9.35727 3.5625 8.12639 3.5625 7.20652Z" fill="#B9362E"/>
</svg>
