<svg width="21" height="21" viewBox="0 0 21 21" fill="none" xmlns="http://www.w3.org/2000/svg">
<path d="M10.5 15.3477C9.75842 15.3477 9.1543 15.9518 9.1543 16.6934C9.1543 17.4349 9.75842 18.0391 10.5 18.0391C11.2416 18.0391 11.8457 17.4349 11.8457 16.6934C11.8457 15.9518 11.2416 15.3477 10.5 15.3477ZM10.5 15.5781C11.1154 15.5781 11.6152 16.078 11.6152 16.6934C11.6152 17.3087 11.1154 17.8086 10.5 17.8086C9.88462 17.8086 9.38477 17.3087 9.38477 16.6934C9.38477 16.078 9.88462 15.5781 10.5 15.5781Z" fill="black" stroke="#DCDCDC"/>
<path d="M10.5 0.5C9.3061 0.5 8.33398 1.47212 8.33398 2.66602V13.5537L8.14355 13.7041C7.23028 14.4241 6.69336 15.5202 6.69336 16.6934C6.69336 18.7919 8.40146 20.5 10.5 20.5C12.5985 20.5 14.3066 18.7919 14.3066 16.6934C14.3066 15.5202 13.7697 14.4241 12.8564 13.7041L12.666 13.5537V2.66602C12.666 1.47212 11.6939 0.5 10.5 0.5ZM10.5 0.730469C11.5677 0.730469 12.4355 1.59831 12.4355 2.66602V13.6855L12.4863 13.7197C13.4811 14.3856 14.0762 15.4975 14.0762 16.6934C14.0762 18.6657 12.4723 20.2695 10.5 20.2695C8.52766 20.2695 6.92383 18.6657 6.92383 16.6934C6.92383 15.4975 7.51892 14.3856 8.51367 13.7197L8.56445 13.6855V11.8457H10.4102V11.6152H8.56445V9.38477H10.4102V9.1543H8.56445V6.92383H10.4102V6.69336H8.56445V4.46289H10.4102V4.23242H8.56445V2.66602C8.56445 1.59831 9.4323 0.730469 10.5 0.730469Z" fill="black" stroke="#DCDCDC"/>
</svg>
