<svg width="17" height="16" viewBox="0 0 17 16" fill="none" xmlns="http://www.w3.org/2000/svg">
<path d="M7.82669 1.94688L3.89336 3.69354C2.76003 4.19354 2.76003 5.02021 3.89336 5.52021L7.82669 7.26688C8.27336 7.46688 9.00669 7.46688 9.45336 7.26688L13.3867 5.52021C14.52 5.02021 14.52 4.19354 13.3867 3.69354L9.45336 1.94688C9.00669 1.74687 8.27336 1.74687 7.82669 1.94688Z" stroke="white" stroke-width="1.5" stroke-linecap="round" stroke-linejoin="round"/>
<path d="M14.5 7.33301C14.5 7.89301 14.08 8.53967 13.5667 8.76634L9.04 10.7797C8.69333 10.933 8.3 10.933 7.96 10.7797L3.43333 8.76634C2.92 8.53967 2.5 7.89301 2.5 7.33301" stroke="white" stroke-width="1.5" stroke-linecap="round" stroke-linejoin="round"/>
<path d="M14.5 10.667C14.5 11.287 14.1333 11.847 13.5667 12.1003L9.04 14.1137C8.69333 14.267 8.3 14.267 7.96 14.1137L3.43333 12.1003C2.86667 11.847 2.5 11.287 2.5 10.667" stroke="white" stroke-width="1.5" stroke-linecap="round" stroke-linejoin="round"/>
</svg>
