<svg width="120" height="120" viewBox="0 0 120 120" fill="none" xmlns="http://www.w3.org/2000/svg">
<path d="M79.0588 14.1182V15.1182H80.176V15.8828H81.176V19.4121H80.176V20.1768H79.0588V21.1768H74.8235V20.1768H70.5881V21.1768H66.3528V20.1768H62.1174V21.1768H57.8821V20.1768H53.6467V21.1768H49.4114V20.1768H45.176V21.1768H40.9407V20.1768H39.8235V19.4121H38.8235V15.8828H39.8235V15.1182H40.9407V14.1182H45.176V15.1182H49.4114V14.1182H53.6467V15.1182H57.8821V14.1182H62.1174V15.1182H66.3528V14.1182H70.5881V15.1182H74.8235V14.1182H79.0588Z" stroke="#457F88" stroke-width="2" stroke-dasharray="4 4"/>
<path d="M72.353 0V1H73.1177V1.76465H74.1177V5.29395H73.1177V6.05859H72.353V7.05859H68.8237V6.05859H65.2944V7.05859H61.7642V6.05859H58.2349V7.05859H54.7056V6.05859H51.1763V7.05859H47.647V6.05859H46.8823V5.29395H45.8823V1.76465H46.8823V1H47.647V0H51.1763V1H54.7056V0H58.2349V1H61.7642V0H65.2944V1H68.8237V0H72.353Z" stroke="#457F88" stroke-width="2" stroke-dasharray="4 4"/>
<path d="M77.9114 109.303C78.5596 109.259 79.2531 109.235 79.9983 109.235C81.0517 109.235 82.0069 109.284 82.8792 109.37L82.9768 108.375V108.374C85.3769 108.611 87.2105 109.128 88.7698 109.726L88.4124 110.659C89.3702 111.027 90.2235 111.428 91.0754 111.829C91.7484 112.146 92.4265 112.465 93.1477 112.751L93.5168 111.822V111.82C94.7145 112.296 96.0259 112.671 97.7942 112.841V112.843L97.6985 113.838C98.3978 113.905 99.1594 113.941 99.9993 113.941C100.839 113.941 101.6 113.905 102.299 113.838L102.203 112.843L102.202 112.841C103.971 112.671 105.282 112.297 106.48 111.821L106.481 111.822L106.85 112.752C107.571 112.466 108.249 112.146 108.922 111.829C109.774 111.428 110.627 111.027 111.585 110.659L111.228 109.726C112.787 109.128 114.62 108.612 117.02 108.374L117.021 108.375L117.119 109.37C117.707 109.312 118.333 109.273 119 109.252V110H120V113.529H119V114.313C118.543 114.33 118.111 114.358 117.699 114.397L117.795 115.393V115.394C116.027 115.563 114.715 115.938 113.518 116.413L113.149 115.483C112.788 115.627 112.438 115.778 112.094 115.934L111.076 116.406C110.224 116.807 109.371 117.209 108.413 117.576L108.77 118.509C107.211 119.107 105.377 119.623 102.978 119.86L102.879 118.865C102.007 118.952 101.052 119 99.9993 119C98.9458 119 97.9907 118.952 97.1184 118.865L97.0198 119.86H97.0168C94.6182 119.623 92.7855 119.107 91.2268 118.509L91.5852 117.576C90.6273 117.209 89.7731 116.807 88.9211 116.406L87.9036 115.934C87.5598 115.778 87.2095 115.628 86.8489 115.484L86.4807 116.413L86.4797 116.414C85.2819 115.939 83.9701 115.563 82.2014 115.394L82.2024 115.393L82.2981 114.397C81.5988 114.33 80.8381 114.294 79.9983 114.294C79.1585 114.294 78.3977 114.33 77.6985 114.397L77.7942 115.393V115.394C76.0262 115.563 74.7144 115.938 73.5168 116.413L73.1477 115.483C72.787 115.627 72.4368 115.778 72.093 115.934L71.0754 116.406C70.4645 116.694 69.8544 116.981 69.2014 117.257L69.5891 118.177C68.4407 118.662 67.157 119.118 65.5989 119.452L65.3899 118.477C64.7794 118.608 64.1224 118.719 63.4094 118.806C62.8643 118.872 62.2944 118.921 61.7122 118.953L61.7668 119.951C60.5973 120.016 59.3886 120.015 58.2327 119.951L58.2874 118.953C57.7011 118.921 57.1313 118.872 56.5911 118.807H56.5901C55.8771 118.72 55.2202 118.609 54.6096 118.478L54.3997 119.453C52.8406 119.119 51.5563 118.663 50.4075 118.177L50.7971 117.257C50.1437 116.981 49.5324 116.694 48.9211 116.406C48.2485 116.09 47.5708 115.771 46.8499 115.484L46.4807 116.413L46.4797 116.414C45.2822 115.939 43.9707 115.563 42.2024 115.394L42.2034 115.393L42.2991 114.397C41.5998 114.33 40.839 114.294 39.9993 114.294C39.1595 114.294 38.3987 114.33 37.6995 114.397L37.7952 115.393V115.394C36.0271 115.563 34.7153 115.938 33.5178 116.413L33.1487 115.483C32.788 115.627 32.4378 115.778 32.094 115.934L31.0764 116.406C30.2245 116.807 29.3712 117.209 28.4133 117.576L28.7708 118.509C27.2116 119.107 25.3784 119.623 22.9788 119.86L22.8801 118.865C22.0079 118.952 21.0527 119 19.9993 119C18.9461 119 17.9915 118.952 17.1194 118.865L17.0208 119.86H17.0178C14.6191 119.623 12.7865 119.107 11.2278 118.509L11.5862 117.576C10.6284 117.209 9.77496 116.807 8.9231 116.406L7.90454 115.934C7.56099 115.778 7.21127 115.627 6.85083 115.484L6.48169 116.413L6.48071 116.414C5.28317 115.939 3.97164 115.563 2.20337 115.394L2.20435 115.393L2.30005 114.397C1.88921 114.358 1.45711 114.33 1.00024 114.313V113.529H0.000244141V110H1.00024V109.252C1.66758 109.273 2.29262 109.312 2.88013 109.37L2.97876 108.375V108.374C5.37837 108.611 7.21168 109.128 8.77075 109.726L8.41431 110.659C8.89318 110.843 9.3459 111.035 9.7854 111.231L11.0774 111.829C11.7501 112.146 12.4277 112.465 13.1487 112.751L13.5178 111.822V111.82C14.7155 112.296 16.0269 112.671 17.7952 112.841V112.843L17.6995 113.838C18.3986 113.905 19.1596 113.941 19.9993 113.941C20.8391 113.941 21.6008 113.905 22.3 113.838L22.2043 112.843L22.2034 112.841C23.9712 112.671 25.2824 112.297 26.4797 111.821L26.4807 111.822L26.8499 112.752C27.2105 112.609 27.5608 112.457 27.9045 112.302L28.9221 111.829C29.7741 111.428 30.6273 111.027 31.5852 110.659L31.2268 109.726C32.7858 109.128 34.6192 108.612 37.0188 108.374L37.0198 108.375L37.1184 109.37C37.9906 109.284 38.9458 109.235 39.9993 109.235C40.7447 109.235 41.4388 109.259 42.0872 109.303L42.1526 108.307C43.8048 108.417 45.189 108.653 46.3977 108.963L46.1506 109.931C47.6458 110.314 48.8627 110.817 50.0208 111.345L50.4348 110.435C51.7739 111.044 52.9927 111.664 54.386 112.13V112.132L54.0696 113.08C54.7582 113.31 55.4911 113.506 56.2971 113.647C56.8836 113.751 57.511 113.825 58.1536 113.874L58.2288 112.877V112.876C59.3862 112.963 60.6185 112.963 61.7698 112.876L61.7708 112.877L61.8469 113.874C62.3306 113.837 62.8042 113.786 63.2571 113.719L63.7024 113.647C64.5086 113.506 65.2421 113.309 65.9309 113.078L65.6135 112.13L65.6125 112.128C67.0046 111.662 68.2233 111.043 69.5627 110.434L69.9778 111.343C71.1352 110.816 72.3525 110.313 73.8479 109.93L73.5999 108.962C74.8083 108.652 76.1924 108.417 77.844 108.307L77.9114 109.303Z" stroke="#457F88" stroke-width="2" stroke-dasharray="4 4"/>
<path d="M93.6747 63.1797L94.2889 67.3311H94.2899L93.3007 67.4775L93.326 67.6533L93.3143 67.6475L92.8671 68.541L89.4061 66.8115L89.8544 65.917L86.3944 64.1875L85.9471 65.0811L82.4872 63.3516L82.9354 62.458L79.4755 60.7275L79.0272 61.6221L75.5682 59.8916L76.0155 58.998L72.5565 57.2676L72.1083 58.1621L68.6483 56.4326H68.6493L69.0966 55.5381L65.6366 53.8086L65.1893 54.7021L61.7284 52.9727H61.7294L62.1766 52.0781L60.4471 51.2139L59.9999 50.9902L59.5526 51.2139L57.8231 52.0781L58.2704 52.9727L54.8094 54.7021L54.3632 53.8086L50.9032 55.5381L51.3505 56.4326L47.8915 58.1621L47.4442 57.2676L43.9843 58.998L44.4305 59.8916L40.9716 61.6221L40.5243 60.7275L37.0653 62.458L37.5116 63.3516L34.0516 65.0811L33.6053 64.1875L30.1454 65.917L30.5927 66.8115L27.1317 68.541L26.6854 67.6475L26.6727 67.6533L26.6991 67.4775L25.7098 67.3301L26.3241 63.1787L27.3143 63.3262L27.9286 59.1748L26.9384 59.0273L27.5526 54.876L27.5536 54.877L28.5428 55.0234L29.1571 50.8721L28.1678 50.7256L28.1669 50.7246L28.7811 46.5732L28.7821 46.5742L29.7714 46.7207L30.3856 42.5693L29.3964 42.4229L29.3954 42.4219L30.0096 38.2705L30.0106 38.2715L30.9999 38.418L31.3016 36.375C31.3933 35.8709 31.5273 35.3842 31.6991 34.918L30.7606 34.5723C31.1101 33.6239 31.6008 32.7499 32.2059 31.9736L32.4501 31.6738L33.2128 32.3193C33.8651 31.5479 34.6486 30.8944 35.5243 30.3906L35.0253 29.5244C35.9885 28.9702 37.0528 28.5789 38.1786 28.3818L38.3514 29.3652C38.8409 29.2796 39.344 29.2354 39.8563 29.2354H41.87V28.2354H45.8993V29.2354H49.9276V28.2354H53.9569V29.2354H57.9852V28.2354H62.0145V29.2354H66.0428V28.2354H70.0721V29.2354H74.1005V28.2354H78.1298V29.2354H80.1434C80.6559 29.2354 81.1597 29.2795 81.6493 29.3652L81.8202 28.3818C82.946 28.5788 84.0102 28.9703 84.9735 29.5244L84.4764 30.3906C85.3521 30.8944 86.1347 31.5479 86.787 32.3193L87.5497 31.6738C88.2673 32.5225 88.8428 33.4997 89.2382 34.5723H89.2391L88.3016 34.918C88.4734 35.3842 88.6065 35.871 88.6981 36.375L89.0009 38.418L89.9891 38.2715V38.2705L90.6034 42.4229L89.6151 42.5693L90.2294 46.7207L91.2177 46.5742L91.8319 50.7256L90.8436 50.8721L91.4579 55.0234L92.4462 54.877L93.0604 59.0283H93.0614L92.0721 59.1748L92.6864 63.3262L93.6747 63.1797ZM55.4706 37.8232V40.5879H56.4706V44.1172H55.4706V46.8828H58.2352V45.8828H61.7645V46.8828H64.5292V44.1172H63.5292V40.5879H64.5292V37.8232H61.7645V38.8232H58.2352V37.8232H55.4706Z" stroke="#457F88" stroke-width="2" stroke-dasharray="4 4"/>
<path d="M55.1627 63.5342L55.4703 63.3799V63.9443H56.4703V68.3066H55.4703V72.6699H56.4703V77.0322H55.4703V81.3955H56.4703V85.7578H55.4703V90.1211H56.4703V94.4834H55.4703V98.8457H56.4703V103.209H55.4703V104.98C55.3194 104.913 55.1615 104.839 54.9928 104.761L55.4137 103.857C55.2634 103.788 55.1038 103.713 54.9332 103.633L54.1031 103.244C53.8151 103.111 53.5148 102.975 53.2028 102.838L52.8004 103.753H52.7994C51.774 103.302 50.6178 102.846 49.278 102.443L49.2789 102.44L49.567 101.482C48.4381 101.143 47.1844 100.842 45.777 100.615L45.6178 101.603L45.6168 101.604C44.4815 101.42 43.2412 101.286 41.8785 101.221H41.8795L41.9274 100.222C41.309 100.192 40.6667 100.177 39.9996 100.177C39.3324 100.177 38.6895 100.192 38.0709 100.222L38.1188 101.221C36.7562 101.286 35.5158 101.42 34.3805 101.604V101.603L34.2213 100.615C32.814 100.842 31.5602 101.143 30.4313 101.482L30.7194 102.44V102.443C29.3796 102.846 28.2234 103.302 27.1979 103.753L26.7955 102.838C26.4832 102.975 26.1825 103.111 25.8942 103.244L25.0651 103.633C24.5758 103.863 24.1746 104.051 23.7994 104.21L24.1891 105.131C23.3099 105.503 22.5429 105.73 21.4283 105.827L21.3434 104.832C20.9596 104.865 20.5204 104.883 19.9996 104.883C19.4791 104.883 19.0406 104.865 18.6569 104.832L18.5699 105.827C17.4556 105.73 16.6885 105.503 15.8092 105.131L16.1998 104.21C15.8246 104.051 15.4235 103.863 14.9342 103.633L14.0729 103.229L13.653 104.138C13.116 103.89 12.543 103.634 11.9244 103.381L12.3043 102.456C12.1745 102.403 12.0409 102.353 11.9069 102.3C11.7924 101.785 11.6764 101.26 11.5582 100.729L10.5817 100.944C10.2791 99.5828 9.9662 98.1746 9.65198 96.7607L10.6285 96.5449C10.3169 95.1425 10.0041 93.734 9.69885 92.3604L8.72131 92.5771C8.39938 91.1285 8.08615 89.718 7.79163 88.3926L8.76819 88.1758C8.66747 87.7225 8.56915 87.2792 8.47327 86.8477L9.52991 86.3203L9.08264 85.4258L9.08167 85.4248L12.5924 83.6719L12.5934 83.6729L13.0397 84.5674L16.5504 82.8145L16.1031 81.9199L16.1022 81.9189L19.6129 80.166L19.6139 80.167L20.0602 81.0615L23.5699 79.3096L23.1237 78.4141L26.6324 76.6611L26.6334 76.6621L27.0807 77.5566L30.5905 75.8037L30.1432 74.9082L33.653 73.1553L33.6539 73.1562L34.1012 74.0508L37.611 72.2979L37.1637 71.4023L40.6735 69.6494L40.6744 69.6504L41.1217 70.5449L44.6315 68.792L44.1852 67.8975L44.1842 67.8965L47.6949 66.1445L48.1422 67.0391L51.652 65.2861L51.2057 64.3916L51.2047 64.3906L54.7155 62.6387L55.1627 63.5342Z" stroke="#457F88" stroke-width="2" stroke-dasharray="4 4"/>
<path d="M100.38 80.1953L103.889 81.9502H103.89L103.443 82.8447L106.952 84.6006L107.4 83.7051L110.908 85.4609H110.909L110.462 86.3555L111.518 86.8838C111.424 87.3044 111.327 87.747 111.225 88.207L112.2 88.4248C111.915 89.7094 111.599 91.1313 111.273 92.5996L110.297 92.3828C109.991 93.7586 109.676 95.175 109.368 96.5576L110.345 96.7744C110.021 98.2331 109.704 99.6538 109.416 100.949L108.441 100.733C108.319 101.28 108.203 101.804 108.093 102.299C107.959 102.352 107.826 102.402 107.696 102.455L108.074 103.38C107.456 103.633 106.883 103.889 106.346 104.137L105.927 103.229C105.628 103.368 105.339 103.502 105.065 103.632C104.575 103.862 104.174 104.051 103.799 104.21L104.188 105.13C103.309 105.502 102.542 105.729 101.428 105.826L101.342 104.831C100.958 104.864 100.52 104.882 99.9991 104.882C99.4783 104.882 99.0393 104.864 98.6554 104.831L98.5685 105.826C97.4542 105.729 96.687 105.502 95.8077 105.13L96.1984 104.21C95.8231 104.051 95.4221 103.862 94.9327 103.632L94.1027 103.244C93.8144 103.111 93.5145 102.974 93.2023 102.837L92.799 103.752C91.7735 103.301 90.6173 102.845 89.2775 102.442L89.2784 102.439L89.5665 101.481C88.4376 101.142 87.1839 100.841 85.7765 100.614L85.6173 101.602L85.6163 101.603C84.481 101.419 83.2407 101.285 81.8781 101.22H81.879L81.9259 100.221C81.3074 100.191 80.6653 100.176 79.9982 100.176C79.2313 100.176 78.4966 100.196 77.7931 100.235L77.8488 101.234V101.235C76.2719 101.323 74.8597 101.503 73.588 101.743V101.742L73.4025 100.759C71.7641 101.068 70.3495 101.475 69.1134 101.911L69.4464 102.854C67.8608 103.414 66.5788 104.022 65.4952 104.532L65.0704 103.63C64.8816 103.719 64.7006 103.8 64.5294 103.879V103.207H63.5294V98.8447H64.5294V94.4824H63.5294V90.1201H64.5294V85.7578H63.5294V81.3955H64.5294V77.0332H63.5294V72.6709H64.5294V68.3086H63.5294V63.9463H64.5294V63.3828L64.837 63.5371L65.2843 62.6426V62.6416L68.7931 64.3975L68.3468 65.292L71.8566 67.0469L72.3038 66.1533V66.1523L75.8126 67.9082L75.3654 68.8027L78.8751 70.5576L79.3214 69.6631L82.8322 71.418L82.3849 72.3135L85.8947 74.0684L86.3409 73.1738L89.8517 74.9287V74.9297L89.4044 75.8242L92.9142 77.5791L93.3605 76.6846L96.8712 78.4395V78.4404L96.424 79.334L99.9337 81.0898L100.38 80.1953Z" stroke="#457F88" stroke-width="2" stroke-dasharray="4 4"/>
</svg>
