<svg width="14" height="14" viewBox="0 0 14 14" fill="none" xmlns="http://www.w3.org/2000/svg">
<path d="M1.16669 8.75H10.7917C11.9175 8.75 12.8334 9.66583 12.8334 10.7917C12.8334 11.9175 11.9175 12.8333 10.7917 12.8333C9.66585 12.8333 8.75002 11.9175 8.75002 10.7917V10.5" stroke="#DCDCDC" stroke-miterlimit="10" stroke-linecap="round" stroke-linejoin="round"/>
<path d="M1.16669 7.00033H10.7917C11.9117 7.00033 12.8334 6.08449 12.8334 4.95866C12.8334 3.83866 11.9117 2.91699 10.7917 2.91699C9.67169 2.91699 8.75002 3.83283 8.75002 4.95866V5.25033" stroke="#DCDCDC" stroke-miterlimit="10" stroke-linecap="round" stroke-linejoin="round"/>
<path d="M1.16669 5.24966H5.43085C6.30002 5.24966 7.00002 4.54383 7.00002 3.68049C7.00002 2.81133 6.29419 2.11133 5.43085 2.11133C4.56169 2.11133 3.86168 2.81716 3.86168 3.68049V3.90216" stroke="#DCDCDC" stroke-miterlimit="10" stroke-linecap="round" stroke-linejoin="round"/>
</svg>
